<svg width="110" height="96" xmlns="http://www.w3.org/2000/svg" xmlns:xlink="http://www.w3.org/1999/xlink" viewBox="0 0 220 192"><defs><style>.cls-1{fill:#a09d9d;}.cls-2{fill:#e5e3e3;}.cls-3{fill:#5d5d5d;}.cls-4{fill:#fff;}.cls-5{fill:#ecc198;}.cls-6{fill:#f7e20c;}.cls-7{fill:#fdfefe;}.cls-8{fill:#f6ddb2;}</style></defs><path class="cls-1" d="M194.37,35.33H70.09a5.25,5.25,0,0,0-5.3,5.2h0V151.81A5.25,5.25,0,0,0,70.08,157H194.37a5.25,5.25,0,0,0,5.3-5.2h0V40.54a5.25,5.25,0,0,0-5.29-5.21Z"/><polygon class="cls-2" points="146.69 80.35 146.69 35.34 117.86 35.34 117.86 82.89 124.34 77.18 127.87 82.89 132.29 77.18 136.69 80.35 141.4 77.18 146.69 80.35"/><rect class="cls-3" x="154.35" y="118.62" width="35.9" height="20.57"/><rect class="cls-4" x="158.78" y="122.19" width="27.67" height="13.39"/><rect class="cls-3" x="74.3" y="96.22" width="24.14" height="19.9"/><rect class="cls-3" x="74.3" y="119.5" width="24.14" height="19.9"/><path class="cls-5" d="M149.79,123.62a6.66,6.66,0,0,0,1.71-4.51c-.88-3.86-2.71-5.31-7-5.54H109.08c-.88,0-1.26-.17-1.26-1.13s.65-1,1.37-1h35.29c5.09-.5,7.17-2.6,6.87-6.93a6.22,6.22,0,0,0-4.18-4.47l-2.34-.27H109c-.88,0-1.26-.17-1.26-1.13s.63-1,1.37-1h35.27l1.47-.13a5.83,5.83,0,0,0,5.49-6.13q0-.08,0-.17a5.72,5.72,0,0,0-.55-2.1,6.31,6.31,0,0,0-5.68-3.49H88.75l-.14-.31,8.64-5.67,1-.78c3.67-2.46,7.38-4.87,11-7.41A6.21,6.21,0,0,0,105.56,60,7.14,7.14,0,0,0,107,62.31a3.6,3.6,0,0,1-.15,5,3.43,3.43,0,0,1-.76.56c-.79.57-1.63,1.07-2.38,1.68s-1.3.38-1.81-.38c-1.26-1.87-2.59-3.72-3.89-5.56l-2,1.13q-7,4.91-14.26,9.43L79.87,75.5,53.38,93.17a6.23,6.23,0,0,0-2.75,3.13c-.33,1-.94,1.15-1.85,1.13H36.06v36.22H49.71a2.21,2.21,0,0,1,2,1.13,9.53,9.53,0,0,0,8.46,4.43H142a15.48,15.48,0,0,0,7.09-.94c.1-.52.57-.76.9-1.11a5.77,5.77,0,0,0-.29-8l-.3-.27a6.07,6.07,0,0,0-1.63-1,11.36,11.36,0,0,0-3.2-.57H109c-.84,0-1.14-.21-1.16-1.07s.39-1.18,1.26-1.18h35.39A7.56,7.56,0,0,0,149.79,123.62Zm-6.91,9.8v-1c0-3.63,0-3.63,3.71-3.34a2.78,2.78,0,0,1,2.69,2.1,9.1,9.1,0,0,1,0,4,2.49,2.49,0,0,1-1.92,2.1c-3.61.82-4.54.13-4.54-3.42Zm0-42v-.8c0-3.3.94-4,4.28-3.17a2.6,2.6,0,0,1,2,1.6,7.65,7.65,0,0,1,.14,4.89c-.49,1.6-4.48,2.69-6,1.72-.39-.25-.37-.63-.37-1V91.45Zm0,14.09V104.2c0-3.3-.47-2.9,3.12-3a3,3,0,0,1,3.26,2.1c.69,2.1.22,5.08-1,5.9a2.67,2.67,0,0,1-.9.38c-3.71.8-4.48.17-4.48-3.49Zm0,13.94v-1.13c0-3.53-.57-3.13,3.24-3.13a3,3,0,0,1,3.3,2.6,3.11,3.11,0,0,1,0,.4,18.5,18.5,0,0,1,0,1.93c0,2.9-.86,3.51-4.71,3.49-1.89,0-1.89,0-1.89-3.19Z"/><path class="cls-6" d="M.08,96.22V143.6H21.55c1.47,0,2-.42,1.85-1.83a26.61,26.61,0,0,1,0-3c0-.67-.1-1.39-.1-2.1q0-20.11,0-40.23a52.82,52.82,0,0,0-6.74-.25Q8.31,96.22.08,96.22ZM10.67,127.9a5.31,5.31,0,1,1,.08,10.62,5.33,5.33,0,0,1-.65-10.64,5,5,0,0,1,.65,0Z"/><path class="cls-7" d="M23.31,96.47q0,20.11,0,40.23a14.78,14.78,0,0,0,.1,2.1h11c1.14,0,1.57-.31,1.49-1.45s0-2.27,0-3.38V97.75c.1-1.18-.43-1.55-1.63-1.49H29A23.2,23.2,0,0,0,23.31,96.47Z"/><path class="cls-8" d="M105.58,60.28a5.28,5.28,0,0,0-4.07,1.09c-1.2.82-2.38,1.66-3.59,2.5,1.3,1.85,2.61,3.7,3.89,5.56.51.76,1,1,1.81.38s1.59-1.11,2.38-1.68a3.58,3.58,0,0,0,1.46-4.76,3.53,3.53,0,0,0-.54-.79A8,8,0,0,1,105.58,60.28Z"/><path class="cls-8" d="M142.88,133.44v.67c0,3.55,1,4.2,4.54,3.42a2.49,2.49,0,0,0,1.92-2.1,9.1,9.1,0,0,0,0-4,2.78,2.78,0,0,0-2.69-2.1c-3.71-.31-3.71-.31-3.71,3.34Z"/><path class="cls-8" d="M142.88,91.47v3.21a1,1,0,0,0,.37,1c1.47,1,5.5-.1,6-1.72a7.65,7.65,0,0,0-.12-4.89,2.6,2.6,0,0,0-2-1.6c-3.34-.82-4.28-.13-4.28,3.17Z"/><path class="cls-8" d="M142.88,105.56v.73c0,3.65.77,4.2,4.48,3.49a2.67,2.67,0,0,0,.9-.38c1.22-.82,1.69-3.74,1-5.9a3,3,0,0,0-3.26-2.1c-3.57,0-3.06-.36-3.12,3Z"/><path class="cls-8" d="M142.88,119.5v1c0,3.17,0,3.17,1.89,3.19,3.85,0,4.67-.59,4.71-3.49a18.5,18.5,0,0,0,0-1.93,3,3,0,0,0-3-3,2.87,2.87,0,0,0-.44,0c-3.81,0-3.18-.4-3.24,3.13A10.54,10.54,0,0,1,142.88,119.5Z"/><path class="cls-7" d="M10.67,127.88a5.31,5.31,0,0,0,0,10.62h0a5.31,5.31,0,0,0,0-10.62Z"/></svg>