<svg xmlns="http://www.w3.org/2000/svg" width="210" height="200" viewBox="0 0 210 200"><path d="M95.7,93.2h-61a2.54,2.54,0,0,0-2.6,2.48v53a2.54,2.54,0,0,0,2.6,2.48h61a2.54,2.54,0,0,0,2.6-2.48v-53A2.54,2.54,0,0,0,95.7,93.2Z" fill="#a09d9d"/><polygon points="72.3 114.64 72.3 93.2 58.15 93.2 58.15 115.85 61.33 113.13 63.06 115.85 65.23 113.13 67.39 114.64 69.7 113.13 72.3 114.64" fill="#e5e3e3"/><rect x="76.06" y="132.87" width="17.62" height="9.8" fill="#5d5d5d"/><rect x="78.23" y="134.57" width="13.58" height="6.38" fill="#fff"/><rect x="36.77" y="122.2" width="11.85" height="9.48" fill="#5d5d5d"/><rect x="36.77" y="133.29" width="11.85" height="9.48" fill="#5d5d5d"/><path d="M73.82,135.25a3.12,3.12,0,0,0,.84-2.15c-.43-1.84-1.33-2.53-3.42-2.64l-17.4,0c-.43,0-.62-.08-.62-.54s.32-.49.67-.49h7.69q4.81,0,9.63,0c2.5-.24,3.52-1.24,3.37-3.3A3,3,0,0,0,72.53,124l-1.15-.13-17.57,0c-.43,0-.62-.08-.62-.54s.31-.5.67-.5h8.9c2.8,0,5.61,0,8.41,0l.72-.06a2.81,2.81,0,0,0,2.69-3,2.66,2.66,0,0,0-.27-1,3.11,3.11,0,0,0-2.79-1.66c-.22,0-.43,0-.64,0H43.86l-.07-.15,4.24-2.7c.17-.12.34-.25.51-.37,1.8-1.17,3.62-2.32,5.4-3.53a2.9,2.9,0,0,0,1.17-3.4,3.06,3.06,0,0,0-3-2,3.39,3.39,0,0,0,.72,1.09,1.68,1.68,0,0,1-.45,2.64c-.39.27-.8.51-1.17.8s-.64.18-.89-.18c-.62-.89-1.27-1.77-1.91-2.65l-1,.54c-2.28,1.56-4.61,3.06-7,4.49l-.91.64-13,8.42a3,3,0,0,0-1.35,1.49c-.16.47-.46.55-.91.54H18v17.25h6.7a1.09,1.09,0,0,1,1,.54,4.72,4.72,0,0,0,4.15,2.11c3.53,0,7,0,10.57,0,3.34,0,6.68,0,10,0H70a7.81,7.81,0,0,0,3.48-.45c.05-.25.28-.36.44-.53a2.69,2.69,0,0,0-.29-3.93,3,3,0,0,0-.8-.47,5.73,5.73,0,0,0-1.57-.27q-8.73,0-17.46,0c-.41,0-.56-.1-.57-.51s.19-.56.62-.56H61.6q4.81,0,9.62,0A3.79,3.79,0,0,0,73.82,135.25Zm-3.39,4.67v-.46c0-1.73,0-1.73,1.82-1.59a1.36,1.36,0,0,1,1.32,1,4.21,4.21,0,0,1,0,1.9,1.2,1.2,0,0,1-.94,1c-1.77.39-2.23.06-2.23-1.63Zm0-20v-.38c0-1.57.46-1.91,2.1-1.51a1.27,1.27,0,0,1,1,.76,3.54,3.54,0,0,1,.07,2.33c-.24.76-2.2,1.28-2.93.82-.19-.12-.18-.3-.18-.48,0-.51,0-1,0-1.53Zm0,6.71V126c0-1.57-.23-1.38,1.53-1.41a1.46,1.46,0,0,1,1.6,1c.34,1,.11,2.42-.49,2.81a1.33,1.33,0,0,1-.44.18c-1.82.38-2.2.08-2.2-1.66Zm0,6.64v-.54c0-1.68-.28-1.49,1.59-1.49a1.44,1.44,0,0,1,1.63,1.43,8.55,8.55,0,0,1,0,.92c0,1.38-.42,1.67-2.31,1.66-.93,0-.93,0-.93-1.52Z" fill="#ecc198"/><path d="M.34,122.2c0,1.64,0,3.28,0,4.91q0,8.83,0,17.66c3.52,0,7,0,10.54,0,.72,0,1-.2.91-.87a12.3,12.3,0,0,1,0-1.45c0-.32-.05-.66-.05-1q0-9.58,0-19.16a26.71,26.71,0,0,0-3.31-.12Q4.38,122.2.34,122.2Zm5.2,15.09a2.83,2.83,0,0,1,2.7,2.52,2.8,2.8,0,0,1-2.66,2.54,2.54,2.54,0,1,1,0-5.07Z" fill="#f7e20c"/><path d="M11.74,122.32q0,9.58,0,19.16c0,.32,0,.66.05,1,1.81,0,3.61,0,5.4,0,.56,0,.77-.15.73-.69s0-1.08,0-1.61V122.93c.05-.56-.21-.74-.8-.71-.85,0-1.71,0-2.57,0A11.73,11.73,0,0,0,11.74,122.32Z" fill="#fdfefe"/><path d="M52.12,105.08a2.65,2.65,0,0,0-2,.52c-.59.39-1.17.79-1.76,1.19.64.88,1.28,1.76,1.91,2.65.25.36.49.5.89.18s.78-.53,1.17-.8a1.68,1.68,0,0,0,.45-2.64A3.79,3.79,0,0,1,52.12,105.08Z" fill="#f6ddb2"/><path d="M70.43,139.93v.32c0,1.69.47,2,2.23,1.63a1.2,1.2,0,0,0,.94-1,4.21,4.21,0,0,0,0-1.9,1.36,1.36,0,0,0-1.32-1c-1.82-.15-1.82-.15-1.82,1.59Z" fill="#f6ddb2"/><path d="M70.43,119.94v1.53a.49.49,0,0,0,.18.48c.72.46,2.7-.05,2.93-.82a3.54,3.54,0,0,0-.06-2.33,1.27,1.27,0,0,0-1-.76c-1.64-.39-2.1-.06-2.1,1.51Z" fill="#f6ddb2"/><path d="M70.43,126.65V127c0,1.74.38,2,2.2,1.66a1.33,1.33,0,0,0,.44-.18c.6-.39.83-1.78.49-2.81a1.45,1.45,0,0,0-1.6-1c-1.75,0-1.5-.17-1.53,1.41C70.43,126.24,70.43,126.44,70.43,126.65Z" fill="#f6ddb2"/><path d="M70.43,133.29v.46c0,1.51,0,1.51.93,1.52,1.89,0,2.29-.28,2.31-1.66a8.55,8.55,0,0,0,0-.92A1.45,1.45,0,0,0,72,131.26c-1.87,0-1.56-.19-1.59,1.49C70.43,132.93,70.43,133.11,70.43,133.29Z" fill="#f6ddb2"/><path d="M5.54,137.28a2.53,2.53,0,1,0,0,5.06,2.53,2.53,0,1,0,0-5.06Z" fill="#fdfefe"/></svg>