<svg xmlns="http://www.w3.org/2000/svg" width="34" height="34" viewBox="0 0 34 34">
    <g fill="none" fill-rule="evenodd">
        <path fill="#202020" fill-rule="nonzero" d="M0 0h34v34H0z"/>
        <path fill="#FF5F00" d="M14.358 21.717h5.339v-9.434h-5.34z"/>
        <path fill="#EB001B" d="M14.697 17c0-1.914.911-3.619 2.33-4.717A6.14 6.14 0 0 0 13.257 11c-3.37 0-6.102 2.686-6.102 6s2.732 6 6.102 6a6.14 6.14 0 0 0 3.77-1.283A5.954 5.954 0 0 1 14.697 17"/>
        <path fill="#F79E1B" d="M26.9 17c0 3.314-2.732 6-6.102 6a6.14 6.14 0 0 1-3.77-1.283A5.954 5.954 0 0 0 19.357 17a5.954 5.954 0 0 0-2.33-4.717A6.14 6.14 0 0 1 20.797 11c3.37 0 6.101 2.686 6.101 6M27.195 21.485v-1h-.12l-.139.687-.138-.687h-.12v1h.084v-.754l.13.65h.088l.13-.652v.756h.085zm-.762 0v-.83h.154v-.168h-.392v.168h.154v.83h.084z"/>
    </g>
</svg>
