<svg xmlns="http://www.w3.org/2000/svg" width="34" height="34" viewBox="0 0 34 34">
    <g fill="none" fill-rule="evenodd">
        <path fill="#FFF" fill-rule="nonzero" d="M0 0h34v34H0z"/>
        <path fill="#E9832C" d="M20.456 24.659c1.586 0 3.307.555 5.212 2.278.19.173.444-.042.278-.256-1.872-2.413-3.603-2.873-5.33-3.261-2.111-.475-3.198-1.689-3.955-3.02-.15-.266-.218-.219-.231.122-.017.416.011.968.102 1.51-.085.004-.17.003-.257.003-3.02 0-5.47-2.5-5.47-5.585s2.45-5.586 5.47-5.586c3.022 0 5.47 2.5 5.47 5.586 0 .219-.01.436-.034.649-.4-.074-1.185-.082-1.737-.033-.208.018-.178.117-.021.146 1.808.333 3.05 1.478 3.334 3.554.007.048.068.062.092.02a8.545 8.545 0 0 0 1.172-4.336c0-4.667-3.705-8.45-8.276-8.45C11.705 8 8 11.783 8 16.45c0 4.666 3.705 8.45 8.275 8.45 1.213 0 2.416-.241 4.181-.241zm.616-3.068c.368.318.48.696.286.962a.594.594 0 0 1-.495.227.866.866 0 0 1-.563-.208c-.334-.299-.433-.783-.214-1.059a.483.483 0 0 1 .39-.166.93.93 0 0 1 .596.244zm1.699-.807c.054.37-.06.523-.176.523-.125 0-.283-.15-.469-.446-.183-.292-.25-.628-.16-.797.06-.112.186-.161.345-.1.307.119.428.599.46.82z"/>
    </g>
</svg>
