<svg xmlns="http://www.w3.org/2000/svg" width="34" height="34" viewBox="0 0 34 34">
    <g fill="none" fill-rule="evenodd">
        <path fill="#2F9A41" fill-rule="nonzero" d="M0 0h34v34H0z"/>
        <g fill="#FFF">
            <path d="M24.426 11.283a14.26 14.26 0 0 1-.55-.786l-10.288 5.874-4.965-2.83a3.416 3.416 0 0 0-.207.95l5.22 3.006 10.79-6.214z"/>
            <path d="M13.588 18.583l-5.334-3.045c-.039.188-.055.379-.047.57a8.766 8.766 0 0 0 4.414 7.6 8.872 8.872 0 0 0 8.827 0 8.766 8.766 0 0 0 4.413-7.6 8.573 8.573 0 0 0-.955-3.994l-11.318 6.469z"/>
            <path d="M23.157 9.76a9.747 9.747 0 0 0-.79-.666l-8.779 5.066-4.233-2.402c-.143.261-.287.547-.455.856l4.64 2.663 9.617-5.516z"/>
            <path d="M21.506 8.525a8.386 8.386 0 0 0-1.034-.523l-6.884 3.941-3.085-1.73c-.206.206-.413.475-.62.737l3.683 2.093 7.94-4.518z"/>
        </g>
    </g>
</svg>
