<svg xmlns="http://www.w3.org/2000/svg" xmlns:xlink="http://www.w3.org/1999/xlink" width="34" height="34" viewBox="0 0 34 34">
    <defs>
        <path id="a" d="M11.348 4.716c-.012-.945.879-1.472 1.55-1.785.69-.322.921-.528.918-.816-.005-.44-.55-.634-1.06-.642-.89-.013-1.406.23-1.818.415L10.618.45c.413-.182 1.176-.34 1.969-.348 1.86 0 3.076.88 3.082 2.244.008 1.731-2.498 1.827-2.48 2.6.005.235.239.486.75.55.254.031.953.056 1.746-.294l.311 1.39a4.927 4.927 0 0 1-1.656.292c-1.75 0-2.982-.892-2.992-2.168m7.639 2.048a.808.808 0 0 1-.754-.481L15.577.205h1.858l.37.979h2.27l.215-.98h1.638l-1.43 6.56h-1.511m.26-1.772l.536-2.463h-1.469l.933 2.463M9.095 6.764L7.631.204H9.4l1.464 6.56h-1.77m-2.619 0L4.633 2.299l-.745 3.797a.816.816 0 0 1-.817.668H.058l-.042-.19c.619-.13 1.321-.337 1.747-.559.26-.135.335-.254.42-.576L3.595.205h1.872l2.868 6.559H6.476"/>
        <linearGradient id="c" x1="16.148%" x2="85.832%" y1="34.401%" y2="66.349%">
            <stop offset="0%" stop-color="#222357"/>
            <stop offset="100%" stop-color="#254AA5"/>
        </linearGradient>
    </defs>
    <g fill="none" fill-rule="evenodd">
        <path fill="#FFF" fill-rule="nonzero" d="M0 0h34v34H0z"/>
        <g transform="matrix(1 0 0 -1 6.028 19.968)">
            <mask id="b" fill="#fff">
                <use xlink:href="#a"/>
            </mask>
            <g mask="url(#b)">
                <path fill="url(#c)" d="M0 12.822l21.59 7.62L26.5 7.66 4.911.04" transform="translate(-2.279 -6.748)"/>
            </g>
        </g>
    </g>
</svg>
