<svg xmlns="http://www.w3.org/2000/svg" width="34" height="34" viewBox="0 0 34 34">
    <g fill="none" fill-rule="nonzero">
        <path fill="#036CB5" d="M0 0h34v34H0z"/>
        <path fill="#FFF" d="M16.959 8.004c1.397 0 2.726.326 3.919.91.187.086.375.19.562.293l-.818.739-1.226-1.29-2.113 1.891L16.04 9.19l-3.885 3.524 2.487 2.767-.97.859 2.453 2.767-.97.858 3.51 3.936 2.077-1.925 1.807 2.063c-.358.275-.75.55-1.176.79a8.846 8.846 0 0 1-4.396 1.169c-4.924 0-8.928-4.038-8.928-9.005-.017-4.932 3.987-8.988 8.911-8.988zm-1.636 8.438l2.13-1.925 1.909 2.148-2.13 1.925-1.909-2.148zm1.517 3.712l2.112-1.942 1.926 2.148-2.13 1.925-1.908-2.13zm-3.033-7.372l2.13-1.925 1.908 2.148-2.13 1.925-1.908-2.148zm3.902-1.032l1.584-1.444 1.432 1.599-1.585 1.46-1.431-1.615zm2.828 6.617l1.585-1.444 1.431 1.615-1.585 1.445-1.43-1.616zm1.397 3.248l1.585-1.444 1.43 1.598-1.584 1.46-1.43-1.614zm.648-7.425l1.056-.962.954 1.066-1.056.962-.954-1.066zm-1.363-3.179l1.056-.98.955 1.083-1.057.963-.954-1.066zm2.709 6.36l1.056-.963.971 1.065-1.073.962-.954-1.065zm-4.754-2.39l1.585-1.443 1.43 1.598-1.583 1.443-1.432-1.598z"/>
    </g>
</svg>
