<svg xmlns="http://www.w3.org/2000/svg" width="150" height="100" viewBox="0 0 150 100"><rect x="1" y="1" width="148" height="98" rx="3" ry="3" fill="#fff" stroke="#ffd426" stroke-miterlimit="10" stroke-width="2"/><path d="M14.6,60.4H137.4V86.8H14.6Z" fill="none"/><path d="M22.4,64.5H21.3c-1.7,0-3.3,1.1-3.3,4.4S19.5,73,21.3,73h1.1ZM20.7,74.7l-3.3,7.5H15l3.6-8c-1.7-.9-2.8-2.5-2.8-5.4s2.6-6.1,5.6-6.1h3.1V82.2H22.4V74.7Z" fill="red"/><path d="M65,75.3c0-4.3,1.7-7.1,4.8-7.1a4.3,4.3,0,0,1,2.5.7l-.3,2a3.6,3.6,0,0,0-2.2-1c-1.5,0-2.6,1.7-2.6,5.2s.8,5.4,2.5,5.4a3.4,3.4,0,0,0,2.3-.8l.5,1.6a4.1,4.1,0,0,1-2.8,1C66.8,82.4,65,80,65,75.3Zm-6.2,0v6.9H56.7V68.5h2.1v6.4l3.3-6.4h2.1l-3.4,6.5,3.9,7.3H62.5Zm-9.9-1.3h3.5c0-2.3-.4-4.1-1.6-4.1S49.1,71.6,48.9,74.1Zm2.3,8.3c-2.8,0-4.6-2.3-4.6-6.5s1.2-7.6,4.1-7.6,3.8,1.7,3.8,6.4v1.2H48.9c0,3.1.9,4.8,2.5,4.8a4.7,4.7,0,0,0,2.7-.9l.5,1.6A5.4,5.4,0,0,1,51.2,82.4Zm-9-12.2H39.9v.2c0,2.9-.1,7.1-1.3,10h3.6Zm3.2,14.7H43.5V82.2H37.7v2.7H35.8V80.5h.8c1.2-2.9,1.4-7.2,1.4-10.8V68.5h6.3v12h1.1ZM34.6,68.5V82.2H32.5V76H29.3v6.2H27.2V68.5h2.1v5.8h3.1V68.5Zm46.4,0c-.3-1-.5-1.9-.7-2.8h-.1c.1.9.1,1.9.1,2.9V82.2H79.1V62.7h1.6l3.3,12.5a18.8,18.8,0,0,1,.4,2.3h.1c.1-.7.3-1.8.5-2.3l3.3-12.5h1.5V82.2H88.4V68.5c0-.9.1-1.9.1-2.9h-.1l-.7,2.7L84.9,79.2H83.8ZM98.1,78.8V75H96.7c-2.3,0-3.3,1-3.3,3.4s.8,3.1,2.1,3.1,2.2-1.2,2.7-2.7m.1,1.6a3.3,3.3,0,0,1-3,2.1c-1.8,0-3.1-1.5-3.1-4S93.7,74,96.6,74h1.5V72.3c0-2.1-.8-3-2.3-3A3.4,3.4,0,0,0,93,70.8l-.4-1.2a4.1,4.1,0,0,1,3.2-1.4c2.2,0,3.5,1.3,3.5,4v7.5a10.2,10.2,0,0,0,.3,2.5H98.5a8.2,8.2,0,0,1-.3-1.9M109,75c0-3.6-1-5.7-2.5-5.7s-2.3,1.3-2.8,2.8v7.7a2.6,2.6,0,0,0,2.5,1.7c1.7,0,2.9-2.1,2.9-6.4m-5.4,6.2v5.2h-1.3v-18h1.1v2.3c.6-1.3,1.6-2.5,3.1-2.5s3.6,2.8,3.6,6.7-1.7,7.5-4.2,7.5a3.1,3.1,0,0,1-2.4-1.2m10.4,1h-1.3V68.5H114v6.5l4.6-6.5h1.2l-4.5,6.4,4.8,7.4h-1.4L114,75.1Zm8-7.7h5c.2-3.7-.9-5.3-2.2-5.3s-2.6,1.9-2.7,5.3m3,6.8a3.5,3.5,0,0,0,2.8-1.5l.4,1a3.9,3.9,0,0,1-3.2,1.6c-2.9,0-4.2-2.6-4.2-7.2s1.7-7.2,4-7.2,3.9,2.5,3.4,7.4h-6.2c.1,3.8,1,5.8,3,5.8m8.8-11.9V82.2h-1.3V69.5h-3.2V68.5h7.6v1.1Z" fill="#222"/><path d="M22.9,48.1l-4.2,2.6a.4.4,0,0,1-.6-.4l1.2-4.8-3.8-3.2a.4.4,0,0,1-.1-.6h.3l4.9-.3,1.8-4.6a.4.4,0,0,1,.5-.2l.2.2,1.8,4.6,4.9.3a.4.4,0,0,1,.4.4v.3l-3.8,3.2,1.2,4.8a.4.4,0,0,1-.3.5h-.3Z" fill="#ffa300"/><path d="M40.9,48.1l-4.2,2.6a.4.4,0,0,1-.6-.4l1.2-4.8-3.8-3.2a.4.4,0,0,1-.1-.6h.3l4.9-.3,1.8-4.6a.4.4,0,0,1,.5-.2l.2.2,1.8,4.6,4.9.3a.4.4,0,0,1,.4.4v.3l-3.8,3.2,1.2,4.8a.4.4,0,0,1-.3.5h-.3Z" fill="#ffa300"/><path d="M76.9,48.1l-4.2,2.6a.4.4,0,0,1-.6-.4l1.2-4.8-3.8-3.2a.4.4,0,0,1-.1-.6h.3l4.9-.3,1.8-4.6a.4.4,0,0,1,.5-.2l.2.2,1.8,4.6,4.9.3a.4.4,0,0,1,.4.4v.3l-3.8,3.2,1.2,4.8a.4.4,0,0,1-.3.5h-.3Z" fill="#ffa300"/><path d="M94.9,48.1l-4.2,2.6a.4.4,0,0,1-.6-.4l1.2-4.8-3.8-3.2a.4.4,0,0,1-.1-.6h.3l4.9-.3,1.8-4.6a.4.4,0,0,1,.5-.2l.2.2,1.8,4.6,4.9.3a.4.4,0,0,1,.4.4v.3l-3.8,3.2,1.2,4.8a.4.4,0,0,1-.3.5h-.3Z" fill="#ffa300"/><path d="M58.9,48.1l-4.2,2.6a.4.4,0,0,1-.6-.4l1.2-4.8-3.8-3.2a.4.4,0,0,1-.1-.6h.3l4.9-.3,1.8-4.6a.4.4,0,0,1,.5-.2l.2.2,1.8,4.6,4.9.3a.4.4,0,0,1,.4.4v.3l-3.8,3.2,1.2,4.8a.4.4,0,0,1-.3.5h-.3Z" fill="#ffa300"/><path d="M76.9,48.1l-4.2,2.6a.4.4,0,0,1-.6-.4l1.2-4.8-3.8-3.2a.4.4,0,0,1-.1-.6h.3l4.9-.3,1.8-4.6a.4.4,0,0,1,.5-.2l.2.2,1.8,4.6,4.9.3a.4.4,0,0,1,.4.4v.3l-3.8,3.2,1.2,4.8a.4.4,0,0,1-.3.5h-.3Z" fill="#ffa300"/><path d="M15.6,19.1h4.2a2.7,2.7,0,0,1,2.9,3,2.9,2.9,0,0,1-3.1,3H17.6v3.4h-2Zm2,4.4h1.8a1.2,1.2,0,0,0,1.4-1.4,1.2,1.2,0,0,0-1.4-1.4H17.6Z"/><path d="M25.1,25.5a1.6,1.6,0,0,0,1.6,1.7,1.2,1.2,0,0,0,1.2-.8h1.9c0,.8-1,2.3-3.1,2.3s-3.3-1-3.3-3.7,1-3.6,3.3-3.6,3.3,1.7,3.3,4.2ZM28,24.3a1.4,1.4,0,1,0-2.8,0Z"/><path d="M31.1,21.5h1.8v4.3h0l2.5-4.3h1.9v6.9H35.5V24.2h0L33,28.4h-2Zm5.2-2.9c0,1.3-.9,1.9-2.1,1.9s-2.1-.5-2.1-1.9h.7c.1.6.7.9,1.4.9s1.3-.3,1.4-.9Z"/><path d="M40.5,23H38.4V21.5h6V23H42.3v5.5H40.5Z"/><path d="M45.5,21.5h1.8v4.3h0l2.5-4.3h1.9v6.9H50V24.2h0l-2.4,4.2h-2Z"/><path d="M53.5,21.5h1.8V24h2.6V21.5h1.8v6.9H57.9v-3H55.3v3H53.5Z"/><path d="M61.4,21.5h4.7V23H63.2v5.5H61.4Z"/><path d="M70.8,21.5h2.7l1.2,5h0l1.1-5h2.6v6.9H76.8V22.9h0l-1.3,5.6H73.8l-1.3-5.6h0v5.6H70.8Z"/><path d="M85.8,27.1c0,.8.2,1,.4,1.1v.3h-2a2,2,0,0,1-.2-.8,2.6,2.6,0,0,1-2.2,1,2,2,0,0,1-2.1-2.1,2.1,2.1,0,0,1,1.9-2.1l1.8-.3c.2,0,.6-.1.6-.6s-.3-.8-1.1-.8-1.1.4-1.2.9H79.9c0-.5.4-2.4,3-2.4s2.9,1.1,2.9,2.1ZM84,25l-.8.3h-.5c-.8.2-1.2.4-1.2,1.1a.8.8,0,0,0,.9.9A1.5,1.5,0,0,0,84,25.7Z"/><path d="M87.4,21.5h4.7V23H89.2v5.5H87.4Z"/><path d="M98.5,27.1c0,.8.2,1,.4,1.1v.3h-2a2,2,0,0,1-.2-.8,2.6,2.6,0,0,1-2.2,1,2,2,0,0,1-2.1-2.1,2.1,2.1,0,0,1,1.9-2.1l1.8-.3c.2,0,.6-.1.6-.6s-.3-.8-1.1-.8-1.1.4-1.2.9H92.6c0-.5.4-2.4,3-2.4s2.9,1.1,2.9,2.1Zm-1.8-2-.8.3h-.5c-.8.2-1.2.4-1.2,1.1a.8.8,0,0,0,.9.9,1.5,1.5,0,0,0,1.6-1.6Z"/><path d="M99.7,23.4a2.5,2.5,0,0,1,.6-1.3,3,3,0,0,1,2.3-.8c1.7,0,2.6,1,2.6,1.9s-.4,1.1-.9,1.4h0a1.7,1.7,0,0,1,1.1,1.7c0,1.5-1.5,2.2-2.9,2.2s-2.8-.7-3.1-2.4h1.7c.2.6.5,1.1,1.2,1.1a1,1,0,0,0,1.1-1c0-.7-.5-.9-1.1-.9H102V24.2h.4c.6,0,1.1-.3,1.1-.8s-.4-.8-1-.8a.9.9,0,0,0-1.1.8Z"/><path d="M106.6,21.5h1.8v4.3h0l2.5-4.3h1.9v6.9h-1.8V24.2h0l-2.4,4.2h-2Z"/><path d="M114.6,21.5h1.8V24H119V21.5h1.8v6.9H119v-3h-2.6v3h-1.8Z"/><path d="M128.1,27.1c0,.8.2,1,.4,1.1v.3h-2a2,2,0,0,1-.2-.8,2.6,2.6,0,0,1-2.2,1,2,2,0,0,1-2.1-2.1,2.1,2.1,0,0,1,1.9-2.1l1.8-.3c.2,0,.6-.1.6-.6s-.3-.8-1.1-.8-1.1.4-1.2.9h-1.8c0-.5.4-2.4,3-2.4s2.9,1.1,2.9,2.1Zm-1.8-2-.8.3h-.5c-.8.2-1.2.4-1.2,1.1a.8.8,0,0,0,.9.9,1.5,1.5,0,0,0,1.6-1.6Z"/></svg>